<svg width="107" height="107" viewBox="0 0 107 107" fill="none" xmlns="http://www.w3.org/2000/svg">
<g id="Property 1=Group 86">
<g id="Ellipse 16" filter="url(#filter0_d_718_2018)">
<circle cx="53.5" cy="49.5" r="49.5" fill="url(#paint0_linear_718_2018)"/>
</g>
<g id="$" filter="url(#filter1_d_718_2018)">
<path d="M69.1297 58.9835C69.1297 61.2235 68.5697 63.3702 67.4497 65.4235C66.3297 67.4302 64.6731 69.1102 62.4797 70.4635C60.3331 71.8168 57.7431 72.5868 54.7097 72.7735V78.4435H50.9297V72.7735C46.6831 72.4002 43.2297 71.0468 40.5697 68.7135C37.9097 66.3335 36.5564 63.3235 36.5097 59.6835H43.2997C43.4864 61.6435 44.2097 63.3468 45.4697 64.7935C46.7764 66.2402 48.5964 67.1502 50.9297 67.5235V50.0235C47.8031 49.2302 45.2831 48.4135 43.3697 47.5735C41.4564 46.7335 39.8231 45.4268 38.4697 43.6535C37.1164 41.8802 36.4397 39.5002 36.4397 36.5135C36.4397 32.7335 37.7464 29.6068 40.3597 27.1335C43.0197 24.6602 46.5431 23.2835 50.9297 23.0035V17.1935H54.7097V23.0035C58.6764 23.3302 61.8731 24.6135 64.2997 26.8535C66.7264 29.0468 68.1264 31.9168 68.4997 35.4635H61.7097C61.4764 33.8302 60.7531 32.3602 59.5397 31.0535C58.3264 29.7002 56.7164 28.8135 54.7097 28.3935V45.4735C57.7897 46.2668 60.2864 47.0835 62.1997 47.9235C64.1597 48.7168 65.7931 50.0002 67.0997 51.7735C68.4531 53.5468 69.1297 55.9502 69.1297 58.9835ZM42.9497 36.1635C42.9497 38.4502 43.6264 40.2002 44.9797 41.4135C46.3331 42.6268 48.3164 43.6302 50.9297 44.4235V28.2535C48.5031 28.4868 46.5664 29.2802 45.1197 30.6335C43.6731 31.9402 42.9497 33.7835 42.9497 36.1635ZM54.7097 67.5935C57.2297 67.3135 59.1897 66.4035 60.5897 64.8635C62.0364 63.3235 62.7597 61.4802 62.7597 59.3335C62.7597 57.0468 62.0597 55.2968 60.6597 54.0835C59.2597 52.8235 57.2764 51.8202 54.7097 51.0735V67.5935Z" fill="white"/>
</g>
</g>
<defs>
<filter id="filter0_d_718_2018" x="0" y="0" width="107" height="107" filterUnits="userSpaceOnUse" color-interpolation-filters="sRGB">
<feFlood flood-opacity="0" result="BackgroundImageFix"/>
<feColorMatrix in="SourceAlpha" type="matrix" values="0 0 0 0 0 0 0 0 0 0 0 0 0 0 0 0 0 0 127 0" result="hardAlpha"/>
<feOffset dy="4"/>
<feGaussianBlur stdDeviation="2"/>
<feComposite in2="hardAlpha" operator="out"/>
<feColorMatrix type="matrix" values="0 0 0 0 0 0 0 0 0 0 0 0 0 0 0 0 0 0 0.25 0"/>
<feBlend mode="normal" in2="BackgroundImageFix" result="effect1_dropShadow_718_2018"/>
<feBlend mode="normal" in="SourceGraphic" in2="effect1_dropShadow_718_2018" result="shape"/>
</filter>
<filter id="filter1_d_718_2018" x="32.4397" y="17.1934" width="40.6901" height="69.25" filterUnits="userSpaceOnUse" color-interpolation-filters="sRGB">
<feFlood flood-opacity="0" result="BackgroundImageFix"/>
<feColorMatrix in="SourceAlpha" type="matrix" values="0 0 0 0 0 0 0 0 0 0 0 0 0 0 0 0 0 0 127 0" result="hardAlpha"/>
<feOffset dy="4"/>
<feGaussianBlur stdDeviation="2"/>
<feComposite in2="hardAlpha" operator="out"/>
<feColorMatrix type="matrix" values="0 0 0 0 0 0 0 0 0 0 0 0 0 0 0 0 0 0 0.25 0"/>
<feBlend mode="normal" in2="BackgroundImageFix" result="effect1_dropShadow_718_2018"/>
<feBlend mode="normal" in="SourceGraphic" in2="effect1_dropShadow_718_2018" result="shape"/>
</filter>
<linearGradient id="paint0_linear_718_2018" x1="53.5" y1="0" x2="53.5" y2="99" gradientUnits="userSpaceOnUse">
<stop stop-color="#FFD81A"/>
<stop offset="1" stop-color="#333333"/>
</linearGradient>
</defs>
</svg>
