<svg width="33" height="33" viewBox="0 0 33 33" fill="none" xmlns="http://www.w3.org/2000/svg">
<path d="M16.5 0C12.0189 0 11.4569 0.0189941 9.69707 0.0992932C7.94077 0.179396 6.74139 0.458347 5.69181 0.866261C4.60685 1.28786 3.68662 1.85205 2.76934 2.76934C1.85199 3.68669 1.28786 4.60685 0.866196 5.69181C0.458281 6.74139 0.179396 7.94077 0.0992278 9.69707C0.0189286 11.457 0 12.0188 0 16.5C0 20.9811 0.0189286 21.543 0.0992278 23.3029C0.179396 25.0592 0.458281 26.2586 0.866196 27.3081C1.28786 28.3931 1.85199 29.3133 2.76934 30.2306C3.68662 31.1479 4.60685 31.7121 5.69181 32.1338C6.74139 32.5417 7.94077 32.8206 9.69707 32.9008C11.4569 32.981 12.0189 33 16.5 33C20.9811 33 21.543 32.981 23.3029 32.9008C25.0592 32.8206 26.2585 32.5417 27.3081 32.1338C28.3931 31.7121 29.3133 31.1479 30.2306 30.2306C31.1479 29.3133 31.7121 28.3931 32.1337 27.3081C32.5417 26.2586 32.8206 25.0592 32.9007 23.3029C32.981 21.543 33 20.9811 33 16.5C33 12.0189 32.981 11.457 32.9007 9.69707C32.8206 7.94077 32.5417 6.74139 32.1337 5.69181C31.7121 4.60685 31.1479 3.68669 30.2306 2.76934C29.3133 1.85205 28.3931 1.28786 27.3081 0.866261C26.2585 0.458347 25.0592 0.179396 23.3029 0.0992932C21.543 0.0189941 20.9811 0 16.5 0ZM16.5 2.97297L18.1147 2.97404C20.2445 2.97746 21.1492 2.98977 22.0486 3.02193L22.3499 3.03341C22.6036 3.04361 22.8674 3.05543 23.1674 3.06912C24.7761 3.14254 25.6497 3.41134 26.2312 3.6373C27.0013 3.93662 27.5511 4.29417 28.1284 4.87153C28.7058 5.44895 29.0633 5.9986 29.3627 6.76877C29.5886 7.35019 29.8574 8.22385 29.9308 9.83258C29.9445 10.1326 29.9563 10.3963 29.9665 10.65L29.978 10.9513L29.988 11.253C30.0128 12.0669 30.0228 12.9921 30.0259 14.8852V18.1147C30.0228 20.0079 30.0128 20.933 29.988 21.747L29.978 22.0486L29.9665 22.3499C29.9563 22.6036 29.9445 22.8674 29.9308 23.1674C29.8574 24.7761 29.5886 25.6498 29.3627 26.2312C29.0633 27.0013 28.7058 27.5511 28.1284 28.1284C27.5511 28.7058 27.0013 29.0634 26.2312 29.3627C25.6497 29.5886 24.7761 29.8575 23.1674 29.9308C21.6677 29.9993 21.0731 30.0212 18.1148 30.026L16.9421 30.027C16.7992 30.027 16.6519 30.027 16.5 30.027L14.8851 30.026C11.9268 30.0212 11.3322 29.9993 9.83258 29.9308C8.22385 29.8575 7.35012 29.5886 6.76871 29.3627C5.99859 29.0634 5.44888 28.7058 4.87153 28.1284C4.29417 27.5511 3.93656 27.0013 3.63724 26.2312C3.41134 25.6498 3.14254 24.7761 3.06912 23.1674C3.05543 22.8674 3.04361 22.6037 3.03341 22.35L3.02193 22.0487C2.98977 21.1492 2.97746 20.2446 2.97404 18.1147L2.97303 16.9421C2.97299 16.7992 2.97297 16.6519 2.97297 16.5L2.97404 14.8852C2.97746 12.7554 2.98977 11.8508 3.02193 10.9513L3.03341 10.65C3.04361 10.3963 3.05543 10.1326 3.06912 9.83258C3.14254 8.22385 3.41134 7.35019 3.63724 6.76877C3.93656 5.9986 4.29417 5.44895 4.87153 4.87159C5.44888 4.29417 5.99859 3.93662 6.76871 3.6373C7.35012 3.41134 8.22385 3.14254 9.83252 3.06912C11.3325 3.00068 11.9271 2.97878 14.8852 2.97404L16.0578 2.97303C16.2007 2.97299 16.348 2.97297 16.5 2.97297ZM16.5 8.02703C11.8205 8.02703 8.02697 11.8205 8.02697 16.5C8.02697 21.1795 11.8205 24.973 16.5 24.973C21.1795 24.973 24.9729 21.1795 24.9729 16.5C24.9729 11.8205 21.1795 8.02703 16.5 8.02703ZM16.5 11C19.5375 11 22 13.4624 22 16.5C22 19.5375 19.5375 22 16.5 22C13.4624 22 10.9999 19.5375 10.9999 16.5C10.9999 13.4624 13.4624 11 16.5 11ZM25.3077 5.71229C24.2142 5.71229 23.3277 6.59873 23.3277 7.69227C23.3277 8.7858 24.2142 9.67223 25.3077 9.67223C26.4013 9.67223 27.2877 8.7858 27.2877 7.69227C27.2877 6.59873 26.4013 5.71229 25.3077 5.71229Z" fill="white"/>
</svg>
