<svg width="33" height="33" viewBox="0 0 33 33" fill="none" xmlns="http://www.w3.org/2000/svg">
<path d="M0 32.9968C0.334178 31.9973 0.632666 31.0984 0.937644 30.206C1.56707 28.3531 2.20298 26.5066 2.82266 24.6505C2.87133 24.5012 2.84213 24.2805 2.76751 24.141C-0.129778 18.7964 -0.184933 13.4258 2.76427 8.11367C4.70769 4.60901 7.6796 2.20442 11.4788 0.932363C16.4007 -0.716125 21.1375 -0.187181 25.5305 2.58734C29.3654 5.00815 31.7728 8.50957 32.6586 12.9715C33.6351 17.8878 32.5126 22.3465 29.346 26.2243C26.6466 29.5278 23.1231 31.4489 18.8827 32.0005C15.4922 32.4419 12.2705 31.8675 9.22395 30.3034C9.07146 30.2255 8.83786 30.219 8.67239 30.2709C5.93733 31.1244 3.20875 31.9908 0.476933 32.8572C0.3504 32.8962 0.227111 32.9319 0 33L0 32.9968Z" fill="white"/>
<path d="M4.29049 28.9996C4.51672 28.941 4.65245 28.9118 4.78819 28.8663C6.22309 28.4078 7.66123 27.9527 9.09614 27.4878C9.34821 27.4065 9.55182 27.4292 9.7845 27.5723C10.266 27.8649 10.7605 28.1445 11.2711 28.3753C16.5292 30.752 22.4789 29.6563 26.5477 25.5728C31.8736 20.2278 31.7476 11.5081 26.2698 6.32245C22.0458 2.32348 15.9669 1.36763 10.796 4.06287C5.98394 6.5728 3.5278 10.6791 3.38883 16.1216C3.31773 18.8591 4.15476 21.369 5.70278 23.6286C5.88699 23.8952 5.93546 24.126 5.81912 24.4446C5.46686 25.4297 5.15338 26.4279 4.8205 27.4227C4.65568 27.9202 4.48763 28.4176 4.29049 28.9963V28.9996Z" fill="#333333"/>
<path d="M12.2708 8.50035C12.9352 8.32777 13.2578 8.74925 13.4932 9.36654C13.8642 10.3389 14.2835 11.2914 14.6512 12.2605C14.719 12.4397 14.7222 12.7151 14.6319 12.8711C14.3609 13.3291 14.0513 13.7672 13.719 14.1754C13.3416 14.64 13.3062 14.7595 13.6126 15.2706C14.8932 17.4078 16.6575 18.9511 18.9284 19.8803C19.2574 20.0164 19.5219 19.9666 19.7477 19.6878C20.1154 19.2331 20.4928 18.7884 20.8476 18.3238C21.2346 17.816 21.4217 17.743 22.0023 18.0218C22.8668 18.4367 23.7216 18.8681 24.5764 19.2995C25.4279 19.7276 25.4763 19.8338 25.3053 20.7896C25.0376 22.2665 23.8732 23.3152 22.3442 23.6238C21.1798 23.8562 20.1509 23.4479 19.0896 23.1227C15.6318 22.0607 13.1062 19.7675 11.0966 16.774C10.3967 15.7319 9.73867 14.6798 9.45159 13.4287C9.03549 11.6067 9.52578 10.0734 10.8644 8.82558C11.2482 8.46716 11.7224 8.43065 12.2708 8.50035Z" fill="white"/>
</svg>
