<svg width="80" height="80" viewBox="0 0 80 80" fill="none" xmlns="http://www.w3.org/2000/svg">
<g clip-path="url(#clip0_655_2154)">
<path d="M0 80C0.810146 77.5767 1.53377 75.3973 2.27313 73.2337C3.79904 68.7412 5.34067 64.2644 6.84298 59.764C6.96097 59.402 6.89018 58.867 6.70927 58.5287C-0.31462 45.5704 -0.448333 32.5492 6.70141 19.6696C11.4128 11.1723 18.6176 5.34225 27.8281 2.25806C39.7601 -1.73879 51.2437 -0.456334 61.8936 6.27065C71.1906 12.14 77.0268 20.6294 79.1741 31.4477C81.5416 43.3674 78.8202 54.1778 71.1434 63.5799C64.5993 71.5893 56.0574 76.2471 45.7772 77.5846C37.5578 78.6546 29.7473 77.262 22.3616 73.4697C21.9919 73.2809 21.4256 73.2651 21.0245 73.391C14.3939 75.4603 7.77898 77.561 1.15623 79.6617C0.849474 79.7561 0.550585 79.8426 0 80.0079L0 80Z" fill="#333333"/>
<path d="M9.98152 70.2439C10.5321 70.1023 10.8625 70.0315 11.1928 69.9214C14.6851 68.812 18.1852 67.7105 21.6775 66.5854C22.291 66.3887 22.7866 66.4438 23.3529 66.79C24.5248 67.4981 25.7283 68.1747 26.971 68.7333C39.7682 74.4847 54.2485 71.8332 64.1512 61.9512C77.1136 49.0166 76.8068 27.9151 63.4748 15.3659C53.1946 5.68847 38.3996 3.37533 25.8148 9.89775C14.103 15.9717 8.12526 25.9088 7.78705 39.0795C7.614 45.7042 9.65117 51.7782 13.4187 57.2463C13.8671 57.8915 13.9851 58.4501 13.7019 59.2211C12.8446 61.6051 12.0816 64.0205 11.2715 66.428C10.8703 67.6318 10.4613 68.8356 9.98152 70.2361V70.2439Z" fill="url(#paint0_linear_655_2154)"/>
<path d="M28.7641 21.2825C30.3844 20.8733 31.1709 21.8725 31.7451 23.336C32.6497 25.6412 33.6722 27.8993 34.5688 30.1967C34.734 30.6216 34.7419 31.2746 34.5216 31.6444C33.8609 32.7301 33.1059 33.7687 32.2957 34.7364C31.3754 35.8379 31.2889 36.1212 32.0361 37.3328C35.1588 42.3997 39.4612 46.0582 44.9985 48.2612C45.8008 48.5838 46.4457 48.4658 46.9963 47.8049C47.893 46.727 48.8133 45.6727 49.6785 44.5712C50.6223 43.3674 51.0785 43.1943 52.4943 43.8552C54.6023 44.8387 56.6866 45.8615 58.771 46.8843C60.8475 47.8993 60.9655 48.1511 60.5486 50.417C59.8958 53.9182 57.0563 56.4044 53.3281 57.1361C50.4886 57.6869 47.9795 56.7191 45.3918 55.9481C36.96 53.4304 30.8013 47.9937 25.9011 40.8969C24.1942 38.4264 22.5897 35.9323 21.8897 32.9662C20.875 28.6467 22.0706 25.0118 25.3347 22.0535C26.2707 21.2038 27.427 21.1172 28.7641 21.2825V21.2825Z" fill="#333333"/>
</g>
<defs>
<linearGradient id="paint0_linear_655_2154" x1="40.7268" y1="6.20898" x2="40.7268" y2="71.7345" gradientUnits="userSpaceOnUse">
<stop stop-color="#FFD81A"/>
<stop offset="1" stop-color="white"/>
</linearGradient>
<clipPath id="clip0_655_2154">
<rect width="80" height="80" fill="white"/>
</clipPath>
</defs>
</svg>
