<svg width="44" height="44" viewBox="0 0 44 44" fill="none" xmlns="http://www.w3.org/2000/svg">
<path d="M12.9375 0C5.83594 0 0 5.82813 0 12.9375V31.0625C0 38.1641 5.82813 44 12.9375 44H31.0625C38.1641 44 44 38.1719 44 31.0625V12.9375C44 5.83594 38.1719 0 31.0625 0H12.9375ZM12.9375 4H31.0625C36.0078 4 40 7.99219 40 12.9375V31.0625C40 36.0078 36.0078 40 31.0625 40H12.9375C7.99219 40 4 36.0078 4 31.0625V12.9375C4 7.99219 7.99219 4 12.9375 4ZM33.8125 8.375C32.8047 8.375 32 9.17969 32 10.1875C32 11.1953 32.8047 12 33.8125 12C34.8203 12 35.625 11.1953 35.625 10.1875C35.625 9.17969 34.8203 8.375 33.8125 8.375ZM22 10C15.3984 10 10 15.3984 10 22C10 28.6016 15.3984 34 22 34C28.6016 34 34 28.6016 34 22C34 15.3984 28.6016 10 22 10ZM22 14C26.4453 14 30 17.5547 30 22C30 26.4453 26.4453 30 22 30C17.5547 30 14 26.4453 14 22C14 17.5547 17.5547 14 22 14Z" fill="#FFD81A"/>
</svg>
