<svg width="132" height="132" viewBox="0 0 132 132" fill="none" xmlns="http://www.w3.org/2000/svg">
<circle cx="66" cy="66" r="66" fill="url(#paint0_linear_655_1964)"/>
<path d="M66.3123 105.673C79.7715 92.2057 94.0147 79.6394 106.991 65.8236C106.786 65.5593 106.581 65.295 106.376 65.0307C105.701 64.9827 105.026 64.8986 104.35 64.8986C97.4157 64.8986 90.481 64.8265 83.5464 64.9586C82.4489 64.9827 81.1102 65.5713 80.3263 66.3402C76.4791 70.1606 72.7887 74.1491 69.0259 78.0536C67.2409 79.9037 66.8912 79.8316 65.8299 77.4048C62.1033 68.9352 58.4008 60.4415 54.6862 51.9718C54.3727 51.263 54.047 50.5782 53.5405 49.509C50.7064 54.1223 47.9566 58.3751 45.4481 62.7601C44.4833 64.454 43.3376 64.9466 41.4803 64.9226C34.9436 64.8265 28.3949 64.8865 21.8583 64.8865C21.4603 64.8865 21.0141 65.0067 20.6884 64.8505C20.0854 64.5622 19.5548 64.1177 19 63.7332C19.5307 63.3968 20.0372 62.8322 20.592 62.7841C22.0754 62.652 23.5829 62.7361 25.0784 62.7361C30.1195 62.7361 35.1728 62.664 40.214 62.7721C41.9868 62.8082 43.0602 62.3396 43.9888 60.7538C46.6059 56.2847 49.4039 51.9117 52.1898 47.5387C52.5757 46.926 53.2631 46.5176 53.8179 46.013C54.2762 46.6017 54.8792 47.1423 55.1807 47.803C59.0641 56.4649 62.9113 65.1388 66.7706 73.8127C67.0842 74.5095 67.4339 75.1943 67.8681 76.1194C71.7153 72.0828 75.3334 68.1663 79.1203 64.43C80.0007 63.565 81.5082 62.9043 82.7263 62.8803C90.3725 62.7361 98.0187 62.8442 105.665 62.7601C106.485 62.7601 107.8 62.2315 108.029 61.6308C113.178 48.1875 105.773 32.3774 92.5313 29.0737C83.6429 26.8632 75.7193 29.4942 68.7967 35.2728C66.2399 37.3992 66.3002 37.4352 63.7073 35.1526C59.7274 31.6446 55.5666 28.3769 50.1275 27.4638C38.9597 25.6017 27.1889 33.6629 23.812 45.4243C23.5708 46.2533 23.4864 47.1423 23.1125 47.8992C22.9316 48.2716 22.2201 48.68 21.8703 48.596C21.5085 48.5119 21.0623 47.8511 21.0502 47.4186C21.0141 46.7338 21.2794 46.037 21.4482 45.3523C24.5115 33.4827 35.1848 25.1212 47.3174 25.001C52.9254 24.941 57.4601 27.5119 61.7535 30.6835C63.2611 31.8008 64.6842 33.0502 66.2641 34.3477C70.0389 30.9238 74.3324 28.3649 79.2771 27.0313C96.9212 22.2739 112.563 34.9003 111.984 53.4135C111.743 61.0662 108.897 67.6137 103.385 72.9477C91.687 84.2767 79.9163 95.5335 68.2419 106.898C66.6741 108.424 65.7214 108.328 64.2018 106.838C55.1566 97.9723 46.0149 89.2023 36.8974 80.4083C36.5597 80.0839 36.0894 79.7956 35.9326 79.3871C35.7637 78.9546 35.7034 78.2338 35.9567 77.9695C36.1979 77.7172 36.9698 77.7292 37.3677 77.9214C37.9105 78.1857 38.3205 78.7263 38.7667 79.1588C47.3174 87.4122 55.8681 95.6536 64.4189 103.907C64.9736 104.448 65.5525 104.976 66.3002 105.673H66.3123Z" fill="#333333" stroke="#333333" stroke-miterlimit="10" stroke-linecap="round"/>
<defs>
<linearGradient id="paint0_linear_655_1964" x1="66" y1="0" x2="66" y2="132" gradientUnits="userSpaceOnUse">
<stop stop-color="#FFD81A"/>
<stop stop-color="#FFD81A"/>
<stop offset="1" stop-color="#FFD81A" stop-opacity="0"/>
</linearGradient>
</defs>
</svg>
