<svg width="132" height="132" viewBox="0 0 132 132" fill="none" xmlns="http://www.w3.org/2000/svg">
<circle cx="66" cy="66" r="66" fill="url(#paint0_linear_655_1973)"/>
<path d="M108.26 63.4399H23.88C22.2894 63.4399 21 64.7294 21 66.3199V66.3299C21 67.9205 22.2894 69.2099 23.88 69.2099H108.26C109.851 69.2099 111.14 67.9205 111.14 66.3299V66.3199C111.14 64.7294 109.851 63.4399 108.26 63.4399Z" fill="white" stroke="#333333" stroke-width="2" stroke-miterlimit="10"/>
<path d="M97.53 77.6501C97.53 78.9977 98.6225 80.0901 99.97 80.0901C101.318 80.0901 102.41 78.9977 102.41 77.6501V55.0201C102.41 53.6725 101.318 52.5801 99.97 52.5801C98.6225 52.5801 97.53 53.6725 97.53 55.0201V77.6501Z" fill="white" stroke="#333333" stroke-width="2" stroke-miterlimit="10"/>
<path d="M92.35 84.2199C92.35 85.5675 93.4424 86.6599 94.79 86.6599C96.1376 86.6599 97.23 85.5675 97.23 84.2199V48.4399C97.23 47.0923 96.1376 45.9999 94.79 45.9999C93.4424 45.9999 92.35 47.0923 92.35 48.4399V84.2199Z" fill="white" stroke="#333333" stroke-width="2" stroke-miterlimit="10"/>
<path d="M34.6 55.0101C34.6 53.6625 33.5075 52.5701 32.16 52.5701C30.8124 52.5701 29.72 53.6625 29.72 55.0101V77.6401C29.72 78.9876 30.8124 80.0801 32.16 80.0801C33.5075 80.0801 34.6 78.9876 34.6 77.6401V55.0101Z" fill="white" stroke="#333333" stroke-width="2" stroke-miterlimit="10"/>
<path d="M39.78 48.44C39.78 47.0924 38.6876 46 37.34 46C35.9925 46 34.9 47.0924 34.9 48.44V84.22C34.9 85.5676 35.9925 86.66 37.34 86.66C38.6876 86.66 39.78 85.5676 39.78 84.22V48.44Z" fill="white" stroke="#333333" stroke-width="2" stroke-miterlimit="10"/>
<path d="M78.2555 89.23C78.2555 92.12 78.2655 95 78.2555 97.89C78.2455 100.18 77.1155 101.34 74.8555 101.34C69.0155 101.35 63.1755 101.35 57.3355 101.34C55.2155 101.34 54.0255 100.17 54.0155 98.06C53.9955 92.12 53.9855 86.18 54.0455 80.24C54.0455 79.48 54.3355 78.53 54.8455 78.02C55.4755 77.38 55.6355 76.78 55.6355 75.97C55.6155 71.31 55.6155 66.65 55.6355 61.99C55.6355 61.27 55.5755 60.67 54.9255 60.15C54.5155 59.83 54.1055 59.18 54.1155 58.69C54.1655 55.98 54.0555 53.22 54.5555 50.59C55.1555 47.48 57.1955 45.14 59.9355 43.52C61.1655 42.79 61.8355 41.81 61.6455 40.38C61.5955 39.98 61.2455 39.61 61.0255 39.24C60.6655 38.64 60.0555 38.07 59.9855 37.44C59.8255 36.01 59.9055 34.56 59.9455 33.12C59.9855 31.79 60.7155 31.04 62.0355 31.03C64.7855 30.99 67.5455 30.99 70.3055 31.03C71.5455 31.05 72.2855 31.82 72.3255 33.07C72.3755 34.55 72.3855 36.04 72.3055 37.52C72.2755 38.01 72.0355 38.72 71.6755 38.9C70.5255 39.48 70.6555 40.49 70.8655 41.33C71.0555 42.09 71.5655 42.97 72.1955 43.37C74.6455 44.94 76.4555 46.97 77.4855 49.69C78.6055 52.64 78.2455 55.71 78.1555 58.75C78.1455 59.16 77.8855 59.7 77.5555 59.93C76.6255 60.58 76.6455 61.46 76.6455 62.43C76.6655 67.05 76.6355 71.67 76.6855 76.29C76.6855 76.81 77.1355 77.33 77.3355 77.86C77.6555 78.68 78.1755 79.5 78.2055 80.33C78.3155 83.3 78.2455 86.27 78.2455 89.24L78.2555 89.23ZM66.2055 78.81C63.3255 78.81 60.4555 78.81 57.5755 78.81C56.0455 78.81 55.7355 79.1 55.7355 80.58C55.7355 86.31 55.7355 92.04 55.7355 97.77C55.7355 99.16 56.1255 99.56 57.4655 99.56C63.2155 99.56 68.9755 99.56 74.7255 99.56C76.1355 99.56 76.4755 99.22 76.4755 97.81C76.4755 92.04 76.4755 86.27 76.4755 80.5C76.4755 79.06 76.2055 78.81 74.7055 78.81C71.8655 78.81 69.0355 78.81 66.1955 78.81H66.2055ZM63.3855 39.54C63.7855 42.39 62.4255 44.02 60.2755 45.46C58.9355 46.36 57.8455 47.79 56.9755 49.19C55.2455 51.97 55.7355 55.17 55.8255 58.24C55.8255 58.58 56.6555 59.19 57.1155 59.2C63.1155 59.26 69.1155 59.24 75.1155 59.25C76.1055 59.25 76.5155 58.76 76.5055 57.79C76.4855 56.43 76.5155 55.07 76.4955 53.71C76.4255 50.31 75.0555 47.44 72.2355 45.63C69.9855 44.18 68.7555 42.48 68.9855 39.79C68.9855 39.73 68.8955 39.66 68.8255 39.56H63.3955L63.3855 39.54ZM57.4855 61.05C57.4355 61.33 57.3855 61.49 57.3855 61.65C57.3855 66.47 57.3955 71.29 57.3555 76.11C57.3555 77.04 57.8355 77.06 58.5155 77.06C63.6055 77.05 68.6955 77.06 73.7955 77.05C74.1155 77.05 74.4355 77 74.7955 76.97V61.06H57.4855V61.05ZM61.6555 32.82C61.6555 34.29 61.6055 35.64 61.6955 36.98C61.7155 37.24 62.3055 37.66 62.6455 37.68C64.4555 37.75 66.2655 37.71 68.0755 37.71C68.8755 37.71 69.6755 37.71 70.4655 37.71V32.83H61.6555V32.82Z" fill="#333333"/>
<path d="M66.2155 78.8201C69.0555 78.8201 71.8855 78.8201 74.7255 78.8201C76.2255 78.8201 76.4955 79.0701 76.4955 80.5101C76.4955 86.2801 76.4955 92.0501 76.4955 97.8201C76.4955 99.2301 76.1555 99.5701 74.7455 99.5701C68.9955 99.5701 63.2355 99.5701 57.4855 99.5701C56.1455 99.5701 55.7555 99.1601 55.7555 97.7801C55.7555 92.0501 55.7555 86.3201 55.7555 80.5901C55.7555 79.1101 56.0655 78.8201 57.5955 78.8201C60.4755 78.8201 63.3455 78.8201 66.2255 78.8201H66.2155Z" fill="white"/>
<path d="M63.3855 39.55H68.8155C68.8855 39.65 68.9755 39.72 68.9755 39.78C68.7355 42.47 69.9755 44.17 72.2255 45.62C75.0455 47.44 76.4055 50.3 76.4855 53.7C76.5155 55.06 76.4855 56.42 76.4955 57.78C76.5155 58.75 76.1055 59.24 75.1055 59.24C69.1055 59.24 63.1055 59.26 57.1055 59.19C56.6555 59.19 55.8255 58.58 55.8155 58.23C55.7255 55.16 55.2355 51.97 56.9655 49.18C57.8355 47.78 58.9255 46.35 60.2655 45.45C62.4155 44.01 63.7755 42.38 63.3755 39.53L63.3855 39.55Z" fill="white"/>
<path d="M57.4855 61.06H74.7955V76.97C74.4355 77 74.1155 77.05 73.7955 77.05C68.7055 77.05 63.6155 77.05 58.5155 77.06C57.8355 77.06 57.3455 77.05 57.3555 76.11C57.3955 71.29 57.3755 66.47 57.3855 61.65C57.3855 61.49 57.4355 61.33 57.4855 61.05V61.06Z" fill="white"/>
<path d="M61.6556 32.8301H70.4655V37.7201C69.6855 37.7201 68.8755 37.7201 68.0755 37.7201C66.2655 37.7201 64.4556 37.7601 62.6456 37.6901C62.3056 37.6801 61.7155 37.2601 61.6955 36.9901C61.5955 35.6501 61.6556 34.2901 61.6556 32.8301Z" fill="white"/>
<defs>
<linearGradient id="paint0_linear_655_1973" x1="66" y1="0" x2="66" y2="132" gradientUnits="userSpaceOnUse">
<stop stop-color="#FFD81A"/>
<stop stop-color="#FFD81A"/>
<stop offset="1" stop-color="#FFD81A" stop-opacity="0"/>
</linearGradient>
</defs>
</svg>
