<svg width="60" height="60" viewBox="0 0 60 60" fill="none" xmlns="http://www.w3.org/2000/svg">
<g filter="url(#filter0_d_743_2296)">
<circle cx="30" cy="26" r="26" fill="white"/>
</g>
<path d="M30 29C30.1897 29 30.367 28.9642 30.5317 28.8926C30.6965 28.8211 30.8487 28.7137 30.9885 28.5706L42.5957 16.408C42.8652 16.1319 43 15.7996 43 15.411C43 15.1452 42.9401 14.9075 42.8203 14.6978C42.7005 14.4882 42.5383 14.3195 42.3336 14.1917C42.1289 14.0639 41.8968 14 41.6372 14C41.2677 14 40.9432 14.138 40.6636 14.4141L30 25.5798L19.3364 14.4141C19.0568 14.138 18.7323 14 18.3629 14C18.1033 14 17.8712 14.0639 17.6665 14.1917C17.4618 14.3195 17.2995 14.4882 17.1797 14.6978C17.0599 14.9075 17 15.1452 17 15.411C17 15.7996 17.1298 16.1319 17.3894 16.408L29.0115 28.5706C29.1513 28.7137 29.3036 28.8211 29.4683 28.8926C29.6331 28.9642 29.8103 29 30 29Z" fill="#979797"/>
<path d="M30 41C30.1897 41 30.367 40.9642 30.5317 40.8926C30.6965 40.8211 30.8487 40.7137 30.9885 40.5706L42.5957 28.408C42.8652 28.1319 43 27.7996 43 27.411C43 27.1452 42.9401 26.9075 42.8203 26.6978C42.7005 26.4882 42.5383 26.3195 42.3336 26.1917C42.1289 26.0639 41.8968 26 41.6372 26C41.2677 26 40.9432 26.138 40.6636 26.4141L30 37.5798L19.3364 26.4141C19.0568 26.138 18.7323 26 18.3629 26C18.1033 26 17.8712 26.0639 17.6665 26.1917C17.4618 26.3195 17.2995 26.4882 17.1797 26.6978C17.0599 26.9075 17 27.1452 17 27.411C17 27.7996 17.1298 28.1319 17.3894 28.408L29.0115 40.5706C29.1513 40.7137 29.3036 40.8211 29.4683 40.8926C29.6331 40.9642 29.8103 41 30 41Z" fill="#979797"/>
<defs>
<filter id="filter0_d_743_2296" x="0" y="0" width="60" height="60" filterUnits="userSpaceOnUse" color-interpolation-filters="sRGB">
<feFlood flood-opacity="0" result="BackgroundImageFix"/>
<feColorMatrix in="SourceAlpha" type="matrix" values="0 0 0 0 0 0 0 0 0 0 0 0 0 0 0 0 0 0 127 0" result="hardAlpha"/>
<feOffset dy="4"/>
<feGaussianBlur stdDeviation="2"/>
<feComposite in2="hardAlpha" operator="out"/>
<feColorMatrix type="matrix" values="0 0 0 0 0 0 0 0 0 0 0 0 0 0 0 0 0 0 0.25 0"/>
<feBlend mode="normal" in2="BackgroundImageFix" result="effect1_dropShadow_743_2296"/>
<feBlend mode="normal" in="SourceGraphic" in2="effect1_dropShadow_743_2296" result="shape"/>
</filter>
</defs>
</svg>
